<?xml version="1.0" encoding="UTF-8"?>
<!-- Generator: Adobe Illustrator 24.1.2, SVG Export Plug-In . SVG Version: 6.00 Build 0)  -->
<svg version="1.1" id="Layer_1" xmlns="http://www.w3.org/2000/svg" xmlns:xlink="http://www.w3.org/1999/xlink" x="0px" y="0px" viewBox="0 0 1020 410" style="enable-background:new 0 0 1020 410;" xml:space="preserve">
<style type="text/css">
	.st0{fill:#FFFFFF;}
</style>
<g>
	<g>
		<path class="st0" d="M286.76,324.94c-5.23,3.38-10.77,6.45-16.56,8.86c-11.76,5.86-25.72,9.96-40.95,11.72l-2.38,0.34l0.01,21.93    l0.01,35.04c23.72-1.7,46.27-7.56,66.95-16.88L286.76,324.94z"/>
		<path class="st0" d="M149.18,330.57c-0.34-0.16-0.69-0.32-1.03-0.48c-2.85-1.34-5.9-3.13-8.87-5.06l-7.09,61.32    c20.53,9.12,42.88,14.85,66.38,16.49l-0.01-35.06l-0.01-21.93l-1.46-0.23C178.8,343.66,162.29,338.3,149.18,330.57"/>
		<path class="st0" d="M410.19,205.12C410.16,95.66,321.39,6.96,211.94,7C102.47,7.04,13.77,95.8,13.81,205.26    c0.03,78.5,45.69,146.3,111.88,178.38l7.24-62.65c-3.94-2.97-7.27-5.91-8.97-7.98c-3.65-4.47-3.99-7.44-3.99-7.44l-20.64,0.01    l-0.01-29.32l12,0l7.03,3.42l79.6,38.74l0-6.89l-78.17-38.04l-8.04-3.91l0.09-31.44l24.11,11.73l62,30.17l0-6.89l-56.67-27.57    l-29.42-14.32l0.09-31.49l62.13,30.23l23.85,11.61l0-6.89l-14.45-7.03l-71.51-34.8l0.09-31.46l85.86,41.78l0-6.89l-85.83-41.77    l0.09-31.48l85.72,41.71l0-6.89l-85.7-41.7l0-0.07l-13.1,0l0-2.92l31.75-19.44l67.04,32.62l0-6.89l-60.77-29.57l28.68-17.56    l32.08,15.61l0-6.89l-25.81-12.56l32.09-19.64l16.39-0.01l32.08,19.61l-26.41,12.88l0,6.89l32.68-15.93l28.69,17.53l-61.36,29.91    l0,6.89l67.63-32.97l31.79,19.43l0,2.92l-13.1,0v0.04l-86.3,42.06l0,6.89l86.32-42.07l0.12,31.48l-86.43,42.13l0,6.89l86.45-42.14    l0.12,31.46l-71.71,34.95l-14.84,7.24l0,6.89l24.21-11.8l62.36-30.4l0.12,31.49l-29.81,14.53l-56.88,27.72l0,6.89l62.18-30.31    l24.52-11.96l0.12,31.44l-8.6,4.19l-78.21,38.13l0,6.89l79.61-38.81l7.58-3.69l12.04,0l0.01,29.32l-20.64,0.01    c0,0-1.35,4.75-3.98,7.45c-2.63,2.7-3.62,4.12-5.72,5.81c-1.03,0.82-2.12,1.59-3.22,2.34l7.22,62.1    C364.95,350.92,410.22,283.31,410.19,205.12"/>
	</g>
	<g>
		<path class="st0" d="M510.89,56.35v50.1H500.1l-18.44-34.16v34.16h-9.39v-50.1h10.79l18.44,34.16V56.35H510.89z"/>
		<path class="st0" d="M565.65,56.07c5.84,0,9.88,4.04,9.88,9.88v30.89c0,5.84-4.04,9.88-9.88,9.88h-16.77    c-5.84,0-9.88-4.04-9.88-9.88V65.95c0-5.84,4.04-9.88,9.88-9.88H565.65z M565.51,67.9c0-1.53-0.83-2.37-2.37-2.37h-11.76    c-1.53,0-2.37,0.83-2.37,2.37v27c0,1.53,0.83,2.37,2.37,2.37h11.76c1.53,0,2.37-0.83,2.37-2.37V67.9z"/>
		<path class="st0" d="M629.8,106.45l-8.07-18.58h-8.07v18.58h-10.02v-50.1h25.54c5.85,0,9.88,4.04,9.88,9.88v11.76    c0,4.73-2.64,8.28-6.82,9.46l8.35,19H629.8z M629.03,68.18c0-1.53-0.83-2.37-2.37-2.37h-13.01v12.73h13.01    c1.53,0,2.37-0.83,2.37-2.37V68.18z"/>
		<path class="st0" d="M685.81,65.67v40.77h-10.02V65.67h-13.08v-9.32h36.18v9.32H685.81z"/>
		<path class="st0" d="M724.42,56.35h10.02v19.76h17.26V56.35h10.02v50.1H751.7V85.57h-17.26v20.87h-10.02V56.35z"/>
		<path class="st0" d="M497.6,138.79c5.84,0,9.88,4.04,9.88,9.88v7.1c0,2.99-1.18,5.64-4.38,7.51c3.48,1.67,4.94,4.52,4.94,7.51V179    c0,5.84-4.04,9.88-9.88,9.88h-25.88v-50.1H497.6z M495.09,158.83c1.81,0,2.37-0.42,2.37-2.37v-5.98c0-1.53-0.83-2.37-2.37-2.37    h-12.8v10.72H495.09z M495.65,179.56c1.53,0,2.37-0.83,2.37-2.37v-7.24c0-2.09-1.25-2.23-3.2-2.23h-12.52v11.83H495.65z"/>
		<path class="st0" d="M561.89,188.88l-8.07-18.58h-8.07v18.58h-10.02v-50.1h25.54c5.85,0,9.88,4.04,9.88,9.88v11.76    c0,4.73-2.64,8.28-6.82,9.46l8.35,19H561.89z M561.12,150.61c0-1.53-0.83-2.37-2.37-2.37h-13.01v12.73h13.01    c1.53,0,2.37-0.83,2.37-2.37V150.61z"/>
		<path class="st0" d="M624.72,138.51c5.84,0,9.88,4.04,9.88,9.88v30.89c0,5.84-4.04,9.88-9.88,9.88h-16.77    c-5.84,0-9.88-4.04-9.88-9.88v-30.89c0-5.84,4.04-9.88,9.88-9.88H624.72z M624.58,150.34c0-1.53-0.83-2.37-2.37-2.37h-11.76    c-1.53,0-2.37,0.83-2.37,2.37v27c0,1.53,0.84,2.37,2.37,2.37h11.76c1.53,0,2.37-0.83,2.37-2.37V150.34z"/>
		<path class="st0" d="M688.17,138.51c5.84,0,9.88,4.04,9.88,9.88v30.89c0,5.84-4.04,9.88-9.88,9.88H671.4    c-5.84,0-9.88-4.04-9.88-9.88v-30.89c0-5.84,4.04-9.88,9.88-9.88H688.17z M688.03,150.34c0-1.53-0.83-2.37-2.37-2.37h-11.76    c-1.53,0-2.37,0.83-2.37,2.37v27c0,1.53,0.83,2.37,2.37,2.37h11.76c1.53,0,2.37-0.83,2.37-2.37V150.34z"/>
		<path class="st0" d="M736.04,176.08v12.8h-9.88v-50.1h9.88v23.52l17.33-23.52h11.76l-15.38,19.76l16.14,30.34h-11.27l-11.55-21.78    L736.04,176.08z"/>
		<path class="st0" d="M800.75,138.79v40.63h21.01v9.46h-31.03v-50.1H800.75z"/>
		<path class="st0" d="M851.47,188.88v-17.33l-15.45-32.77h10.99l9.46,21.43l9.46-21.43h10.99l-15.45,32.77v17.33H851.47z"/>
		<path class="st0" d="M939.77,138.79v50.1h-10.78l-18.44-34.16v34.16h-9.39v-50.1h10.78l18.44,34.16v-34.16H939.77z"/>
		<path class="st0" d="M497.88,221.22c5.84,0,9.88,4.04,9.88,9.88v12.66c0,5.84-4.04,9.88-9.88,9.88h-15.59v17.67h-10.02v-50.1    H497.88z M495.37,244.18c1.53,0,2.37-0.84,2.37-2.37v-8.77c0-1.53-0.83-2.37-2.37-2.37h-13.08v13.5H495.37z"/>
		<path class="st0" d="M536.98,271.32h-10.37l16.14-50.1h11.69l16.14,50.1H559.8l-3.27-11.27h-16.21L536.98,271.32z M543.1,250.58    h10.72l-5.29-18.37L543.1,250.58z"/>
		<path class="st0" d="M621.66,271.32l-8.07-18.58h-8.07v18.58h-10.02v-50.1h25.54c5.85,0,9.88,4.04,9.88,9.88v11.76    c0,4.73-2.64,8.28-6.82,9.46l8.35,19H621.66z M620.89,233.05c0-1.53-0.83-2.37-2.37-2.37h-13.01v12.73h13.01    c1.53,0,2.37-0.83,2.37-2.37V233.05z"/>
		<path class="st0" d="M668.9,258.52v12.8h-9.88v-50.1h9.88v23.52l17.33-23.52h11.76l-15.38,19.76l16.14,30.34h-11.27l-11.55-21.78    L668.9,258.52z"/>
		<path class="st0" d="M745.58,232.77c0-1.53-0.83-2.37-2.37-2.37h-10.02c-1.53,0-2.37,0.83-2.37,2.37v4.73    c0,1.53,0.83,2.02,2.37,2.37l12.94,2.78c5.43,1.18,10.02,4.45,10.02,10.02v9.04c0,5.85-4.04,9.88-9.88,9.88h-15.59    c-5.84,0-9.88-4.04-9.88-9.88v-6.4h9.74v4.45c0,1.53,0.83,2.37,2.37,2.37h10.85c1.53,0,2.37-0.83,2.37-2.37v-5.29    c0-1.53-0.83-2.02-2.37-2.37l-12.94-2.78c-5.43-1.18-10.02-4.45-10.02-10.02v-8.49c0-5.85,4.04-9.88,9.88-9.88h14.75    c5.84,0,9.88,4.04,9.88,9.88v5.84h-9.74V232.77z"/>
		<path class="st0" d="M478.26,353.75h-10.37l16.14-50.1h11.69l16.14,50.1h-10.79l-3.27-11.27H481.6L478.26,353.75z M484.38,333.02    h10.71l-5.29-18.37L484.38,333.02z"/>
		<path class="st0" d="M546.79,303.66v40.63h21.01v9.46h-31.03v-50.1H546.79z"/>
		<path class="st0" d="M603.71,303.66v40.63h21.01v9.46h-31.03v-50.1H603.71z"/>
		<path class="st0" d="M650.6,303.66h10.02v50.1H650.6V303.66z"/>
		<path class="st0" d="M695.89,353.75h-10.37l16.14-50.1h11.69l16.14,50.1h-10.79l-3.27-11.27h-16.21L695.89,353.75z M702.02,333.02    h10.72l-5.29-18.37L702.02,333.02z"/>
		<path class="st0" d="M793.03,303.66v50.1h-10.78l-18.44-34.16v34.16h-9.39v-50.1h10.78l18.44,34.16v-34.16H793.03z"/>
		<path class="st0" d="M846.74,315.21c0-1.53-0.84-2.37-2.37-2.37h-10.85c-1.53,0-2.37,0.83-2.37,2.37v27    c0,1.53,0.83,2.37,2.37,2.37h10.85c1.53,0,2.37-0.83,2.37-2.37v-6.12h10.02v8.07c0,5.85-4.04,9.88-9.88,9.88h-15.86    c-5.84,0-9.88-4.04-9.88-9.88v-30.89c0-5.85,4.04-9.88,9.88-9.88h15.86c5.84,0,9.88,4.04,9.88,9.88v8.07h-10.02V315.21z"/>
		<path class="st0" d="M916.73,303.66v9.46h-22.75v10.3h18.44v9.46h-18.44v11.41h22.75v9.46h-32.77v-50.1H916.73z"/>
	</g>
</g>
</svg>